<?xml version="1.0" encoding="UTF-8" standalone="no"?>
<svg xmlns="http://www.w3.org/2000/svg" width="2000" height="2058" viewBox="0 0 2000 2058" version="1.1"><path d="M 1364.559 219.124 C 1362.392 219.632, 1360.472 220.195, 1360.292 220.375 C 1360.112 220.555, 1360.716 223.581, 1361.634 227.101 C 1364.174 236.834, 1363.991 250.979, 1361.222 259.042 C 1356.277 273.442, 1345.260 287.691, 1333.975 294.283 C 1324.993 299.530, 1307.226 301.997, 1278.500 301.988 C 1239.019 301.975, 1211.741 297.139, 1174.445 283.540 C 1110.762 260.319, 1057.636 250.059, 984.594 246.874 C 887.503 242.640, 796.334 260.077, 721.500 297.194 C 662.647 326.384, 610.354 369.032, 573.930 417.545 C 539.435 463.490, 513.047 523.924, 504.089 577.500 C 500.843 596.911, 500 608.739, 500 634.873 C 500 693.875, 506.190 739.886, 519.321 778.500 C 540.428 840.565, 582.635 906.204, 645.996 975.500 C 666.562 997.993, 708.502 1038.819, 735.500 1062.626 C 771.885 1094.712, 772 1094.865, 772 1111.240 C 772 1130.876, 767.615 1157.297, 759.938 1183.921 C 757.785 1191.389, 756.018 1197.812, 756.011 1198.194 C 756.005 1198.576, 760.613 1195.963, 766.250 1192.388 C 802.621 1169.322, 839.368 1156.846, 871 1156.824 C 913.403 1156.794, 964.689 1182.125, 1047.500 1244 C 1100.766 1283.799, 1142.556 1322.518, 1171.084 1358.500 C 1192.063 1384.961, 1203.519 1413.785, 1208.047 1451.500 C 1209.752 1465.700, 1209.472 1498.923, 1207.525 1513.431 C 1201.081 1561.454, 1181.969 1600.093, 1149.425 1630.900 C 1121.676 1657.166, 1084.967 1677.320, 1047.030 1687.117 C 987.203 1702.566, 910.044 1697.313, 848.748 1673.618 C 781.322 1647.553, 722.988 1595.444, 690.068 1531.873 C 669.731 1492.600, 658.848 1453.692, 653.881 1402.500 C 652.207 1385.247, 652.203 1338.405, 653.874 1325.500 C 658.195 1292.134, 667.234 1266.913, 681.619 1248.089 L 687.282 1240.678 685.391 1237.117 C 681.943 1230.622, 671.424 1220.470, 664.242 1216.705 C 653.895 1211.280, 646.448 1209.630, 632 1209.560 C 621.490 1209.510, 618.386 1209.870, 612.500 1211.823 C 603.950 1214.660, 592.374 1220.754, 585 1226.302 C 571.414 1236.521, 551.411 1258.693, 539.260 1277 C 517.483 1309.810, 506 1349.596, 506 1392.237 C 506 1415.678, 509.557 1434.798, 517.632 1454.766 L 522.188 1466.032 515.271 1474.266 C 479.814 1516.473, 463.431 1556.885, 465.311 1597.500 C 466.939 1632.687, 479.953 1661.581, 506.439 1688.818 L 515.500 1698.135 515.374 1718.818 C 515.304 1730.193, 514.698 1744, 514.027 1749.500 C 511.597 1769.421, 505.553 1787.570, 497.241 1799.911 L 492.803 1806.500 495.121 1811 C 498.696 1817.943, 510.393 1829.040, 518 1832.707 C 528.253 1837.650, 535.126 1839.123, 550.671 1839.711 C 561.449 1840.119, 567.298 1839.836, 575.099 1838.532 C 614.037 1832.021, 651.144 1811.250, 693.751 1772.115 L 706.003 1760.861 713.251 1764.843 C 742.844 1781.100, 789.177 1798.626, 829.605 1808.855 C 889.115 1823.914, 944.171 1829.810, 1015 1828.709 C 1052.055 1828.133, 1072.614 1826.695, 1104.500 1822.449 C 1225.342 1806.358, 1327.995 1758.606, 1408.121 1681.210 C 1466.178 1625.132, 1503.634 1561.620, 1521.456 1489.036 C 1536.036 1429.661, 1538.953 1354.429, 1528.960 1295.500 C 1519.843 1241.734, 1498.347 1188.298, 1466.247 1139.599 C 1439.433 1098.922, 1402.326 1055.336, 1349.021 1001.908 C 1311.651 964.452, 1287.929 942.290, 1242.414 902.310 C 1223.265 885.489, 1218.667 880.501, 1214.830 872.387 C 1207.930 857.793, 1208.849 847.450, 1222.138 790.171 C 1226.008 773.489, 1228.963 759.630, 1228.704 759.371 C 1228.446 759.112, 1224.076 761.422, 1218.993 764.504 C 1182.659 786.536, 1135.880 802.160, 1105.500 802.410 C 1095.222 802.494, 1093.975 802.283, 1086.500 799.191 C 1082.100 797.370, 1073.775 793.323, 1068 790.196 C 1054.647 782.966, 982.264 734.807, 962.500 720.003 C 915.112 684.507, 874.268 643.571, 859.586 616.858 C 841.305 583.595, 837.923 536.873, 850.977 497.910 C 863.419 460.771, 894.271 426.562, 932.500 407.514 C 962.802 392.416, 989.842 387.195, 1031.975 388.308 C 1055.815 388.938, 1065.234 389.789, 1084.302 393.038 C 1192.383 411.453, 1271.304 485.096, 1296.452 591 C 1306.107 631.661, 1302.923 679.393, 1287.991 717.848 C 1286.379 721.998, 1285.160 725.491, 1285.280 725.610 C 1286.306 726.619, 1302.535 732.349, 1309.151 734.039 C 1327.706 738.776, 1354.984 740.444, 1365.992 737.515 C 1381.297 733.442, 1402.883 716.962, 1415.785 699.500 C 1428.760 681.940, 1436.022 658.431, 1435.980 634.119 C 1435.957 620.621, 1434.991 612.791, 1431.437 597.293 L 1428.867 586.086 1435.520 578.293 C 1451.970 559.024, 1461.592 539.396, 1467.231 513.604 C 1469.137 504.885, 1469.439 500.485, 1469.437 481.500 C 1469.435 464.495, 1469.032 457.457, 1467.661 450.500 C 1462.877 426.220, 1454.942 409.129, 1442.299 395.875 L 1436.811 390.121 1441.954 383.811 C 1448.351 375.960, 1454.354 363.976, 1457.136 353.500 C 1460.455 341.004, 1460.888 315.939, 1458.025 302.026 C 1449.827 262.172, 1421.690 227.659, 1390.661 219.398 C 1384.892 217.862, 1370.587 217.712, 1364.559 219.124 M 632.548 557.724 C 621.829 563.178, 611.785 576.473, 606.654 592 C 599.375 614.030, 598.576 648.039, 604.600 679.500 C 616.543 741.876, 656.996 809.679, 725.850 882.726 C 745.163 903.215, 763.610 920.648, 812.552 964.661 C 840.122 989.456, 854.695 1003.294, 859.316 1009.069 C 865.745 1017.105, 870.006 1025.571, 869.995 1030.288 C 869.987 1033.779, 862.316 1062.364, 858.063 1074.750 C 855.939 1080.938, 854.369 1086, 854.576 1086 C 854.782 1086, 859.124 1083.770, 864.225 1081.045 C 876.595 1074.438, 886.069 1070.615, 896.701 1067.942 C 904.441 1065.996, 907.065 1065.806, 918.500 1066.364 C 947.746 1067.793, 970.367 1075.278, 999 1093.001 C 1048.076 1123.379, 1105.589 1163.496, 1144.760 1194.673 C 1187.253 1228.495, 1227.990 1268.052, 1249.625 1296.500 C 1282.083 1339.180, 1299.808 1388.180, 1304.969 1449.500 C 1306.996 1473.579, 1305.919 1507.259, 1302.492 1527 C 1301.776 1531.125, 1301.365 1534.680, 1301.579 1534.901 C 1302.284 1535.626, 1316.573 1524.145, 1321.656 1518.769 C 1345.680 1493.361, 1355.188 1462.358, 1353.632 1414.500 C 1351.723 1355.765, 1342.241 1324.623, 1312.680 1280 C 1279.985 1230.645, 1218.520 1173.668, 1134.500 1114.830 C 1119.235 1104.140, 1095.301 1087.767, 1011.500 1030.687 C 931.034 975.878, 917.013 965.931, 886.314 941.873 C 786.826 863.908, 711.356 777.344, 671.516 695.500 C 650.025 651.351, 639.727 613.334, 638.157 572.352 L 637.500 555.204 632.548 557.724" stroke="none" fill="#fbfbfb" fill-rule="evenodd"/><path d="M 1761.879 1.938 C 1748.153 4.563, 1729.444 9.919, 1704.320 18.417 L 1682.500 25.798 1664.500 26.458 C 1579.559 29.570, 1511.528 39.117, 1358.500 69.400 C 1287.140 83.521, 1257.986 89.023, 1223 94.975 L 1193.500 99.993 1162 99.983 C 1118.993 99.969, 1059.019 98.542, 953 95.012 C 793.152 89.688, 726.547 89.039, 650 92.058 C 465.726 99.327, 320.508 130.012, 183 190.736 C 173.449 194.954, 169.733 197.149, 167.247 200.040 C 163.691 204.177, 154.351 210.429, 146.500 213.927 C 143.750 215.152, 131.825 219.750, 120 224.145 C 82.073 238.240, 61.729 249.504, 44.864 265.748 C 21.402 288.345, 8.105 317.913, 1.801 361.500 C -0.390 376.657, 0.190 425.718, 2.813 447 C 3.999 456.625, 5.888 472.375, 7.011 482 C 11.087 516.948, 15.617 544.762, 28.051 611.176 C 43.948 696.086, 49.060 732.646, 51.026 775.500 C 51.606 788.150, 52.296 799.513, 52.560 800.750 C 53.402 804.709, 56.709 803.502, 60.095 798 C 61.787 795.250, 63.566 793, 64.047 793 C 65.109 793, 66.432 797.976, 68.037 808 C 70.488 823.306, 76.226 839.186, 81.360 844.868 C 82.537 846.171, 86.716 849.627, 90.646 852.548 C 98.848 858.645, 101.695 862.053, 105.743 870.616 L 108.633 876.732 106.900 887.116 C 101.985 916.555, 100.072 938.172, 99.345 972.500 C 98.302 1021.744, 101.180 1058.133, 112.654 1140.775 L 116.302 1167.050 113.986 1169.515 C 111.479 1172.183, 103.649 1177.378, 92.380 1183.848 C 77.392 1192.454, 69.071 1201.150, 62.091 1215.500 C 54.110 1231.908, 49.610 1251.266, 48.027 1276 C 46.830 1294.689, 45.154 1303.291, 42.115 1306.329 C 40.045 1308.399, 39.965 1308.402, 34.708 1306.615 C 29.897 1304.980, 29.056 1304.950, 25.840 1306.294 C 23.886 1307.110, 21.155 1308.999, 19.771 1310.491 C 15.499 1315.098, 14.894 1319.194, 15.609 1338.689 C 16.378 1359.667, 15.523 1369.168, 9.933 1401.717 C 3.450 1439.465, 3.081 1458.407, 8.398 1480.389 C 10.734 1490.047, 10.752 1490.467, 9.198 1498.389 C 7.957 1504.712, 7.607 1513.115, 7.611 1536.500 C 7.616 1564.588, 7.849 1568.508, 11.267 1598 C 15.978 1638.636, 16.990 1652.839, 17.002 1678.500 C 17.012 1700.740, 17.856 1709.128, 20.606 1714.312 C 26.698 1725.796, 26.503 1725.085, 26.434 1735.500 C 26.385 1742.873, 25.391 1750.327, 22.649 1763.876 C 20.603 1773.982, 18.399 1788.103, 17.751 1795.254 L 16.573 1808.257 19.938 1814.378 C 31.045 1834.581, 49.092 1860.844, 64.623 1879.403 C 102.350 1924.488, 144.961 1950.901, 196 1960.837 C 220.567 1965.620, 228.889 1966.124, 297.500 1966.983 C 365.926 1967.840, 371.573 1968.220, 396 1973.612 C 424.465 1979.895, 449.620 1991.097, 473 2007.902 L 482.500 2014.730 488.875 2002.387 C 492.382 1995.598, 496.755 1988.346, 498.595 1986.272 C 503.738 1980.472, 504.184 1982.174, 503.405 2004.666 C 502.537 2029.709, 503.166 2032.089, 509.136 2026.370 C 513.808 2021.893, 515.342 2023.521, 523.042 2041.126 C 529.378 2055.612, 530.761 2057.500, 535.036 2057.500 C 537.991 2057.500, 538.613 2056.985, 540.691 2052.818 C 543.897 2046.390, 544.987 2039.744, 545.073 2026.114 C 545.155 2013.068, 546.130 2004.470, 547.706 2002.894 C 548.450 2002.150, 549.353 2002.204, 550.750 2003.076 C 555.808 2006.235, 557.958 2001.756, 558.705 1986.500 C 559.356 1973.200, 558.250 1968.187, 554.157 1965.877 C 550.145 1963.613, 549.759 1960.060, 552.610 1951.675 C 560.220 1929.304, 562.756 1935.914, 569.500 1995.687 C 574.978 2044.247, 578.208 2058, 584.135 2058 C 586.191 2058, 586.210 2057.795, 585.362 2044.750 C 584.164 2026.328, 584.346 2012.953, 585.833 2010.250 C 586.559 2008.929, 588.019 2008, 589.366 2008 C 591.441 2008, 592.078 2006.672, 595.973 1994.250 C 598.344 1986.688, 600.951 1979.177, 601.766 1977.560 C 603.150 1974.814, 603.336 1974.739, 604.571 1976.428 C 605.298 1977.423, 606.570 1981.221, 607.396 1984.868 C 609.890 1995.873, 613.999 2023.798, 614.013 2029.839 C 614.027 2035.866, 617.358 2053.758, 618.720 2055.120 C 619.168 2055.568, 621.326 2052.238, 623.517 2047.721 C 628.594 2037.251, 636.596 2028.678, 642.834 2027.026 C 650.980 2024.868, 656.816 2027.486, 676.050 2041.933 C 683.648 2047.639, 691.801 2052.897, 694.788 2054.017 C 706.592 2058.444, 714.778 2055.323, 723.112 2043.217 C 726.463 2038.349, 731.325 2034.999, 735 2035.026 C 739.163 2035.056, 745.047 2038.361, 754.330 2045.885 C 764.675 2054.269, 769.609 2057, 774.413 2057 C 780.050 2057, 782.211 2055.293, 787.504 2046.661 C 794.997 2034.440, 797.823 2035.119, 802.449 2050.253 L 804.664 2057.500 841.082 2057.453 C 873.985 2057.410, 880.782 2057.099, 911.500 2054.225 C 958.245 2049.853, 971.413 2049.021, 994.076 2049.010 C 1021.068 2048.996, 1041.935 2051.189, 1061.167 2056.059 C 1071.081 2058.569, 1072.069 2058.537, 1091.277 2055.080 C 1138.406 2046.599, 1180.061 2042.708, 1243.191 2040.893 C 1282.143 2039.773, 1316.733 2040.185, 1430.500 2043.125 C 1477.840 2044.349, 1569.984 2043.743, 1596 2042.036 C 1661.514 2037.740, 1712.441 2030.417, 1760.283 2018.415 C 1780.712 2013.290, 1803.020 2002.583, 1883 1959.515 C 1903.625 1948.409, 1925.191 1936.887, 1930.924 1933.911 C 1941.257 1928.547, 1941.371 1928.448, 1944.062 1922.500 C 1954.803 1898.754, 1966.383 1841.596, 1973.438 1777.500 C 1982.508 1695.101, 1985.934 1608.461, 1985.996 1460 C 1986.039 1353.467, 1987.402 1283.120, 1991.526 1174.500 C 1994.328 1100.703, 1994.991 1072.261, 1995.961 984 C 1996.496 935.325, 1997.511 850.725, 1998.217 796 C 1999.791 673.958, 1999.767 559.149, 1998.159 516.500 C 1994.368 415.914, 1993.753 403.416, 1990.438 359.500 C 1985.013 287.620, 1975.173 221.082, 1964.472 183.901 C 1958.243 162.260, 1941.453 122.461, 1929.040 99.912 C 1913.919 72.443, 1901.813 55.712, 1884.554 38.429 C 1866.647 20.498, 1849.473 9.808, 1828.071 3.269 C 1819.993 0.801, 1818.118 0.635, 1795.500 0.375 C 1775.530 0.145, 1769.884 0.408, 1761.879 1.938 M 1364.559 219.124 C 1362.392 219.632, 1360.472 220.195, 1360.292 220.375 C 1360.112 220.555, 1360.716 223.581, 1361.634 227.101 C 1364.174 236.834, 1363.991 250.979, 1361.222 259.042 C 1356.277 273.442, 1345.260 287.691, 1333.975 294.283 C 1324.993 299.530, 1307.226 301.997, 1278.500 301.988 C 1239.019 301.975, 1211.741 297.139, 1174.445 283.540 C 1110.762 260.319, 1057.636 250.059, 984.594 246.874 C 887.503 242.640, 796.334 260.077, 721.500 297.194 C 662.647 326.384, 610.354 369.032, 573.930 417.545 C 539.435 463.490, 513.047 523.924, 504.089 577.500 C 500.843 596.911, 500 608.739, 500 634.873 C 500 693.875, 506.190 739.886, 519.321 778.500 C 540.428 840.565, 582.635 906.204, 645.996 975.500 C 666.562 997.993, 708.502 1038.819, 735.500 1062.626 C 771.885 1094.712, 772 1094.865, 772 1111.240 C 772 1130.876, 767.615 1157.297, 759.938 1183.921 C 757.785 1191.389, 756.018 1197.812, 756.011 1198.194 C 756.005 1198.576, 760.613 1195.963, 766.250 1192.388 C 802.621 1169.322, 839.368 1156.846, 871 1156.824 C 913.403 1156.794, 964.689 1182.125, 1047.500 1244 C 1100.766 1283.799, 1142.556 1322.518, 1171.084 1358.500 C 1192.063 1384.961, 1203.519 1413.785, 1208.047 1451.500 C 1209.752 1465.700, 1209.472 1498.923, 1207.525 1513.431 C 1201.081 1561.454, 1181.969 1600.093, 1149.425 1630.900 C 1121.676 1657.166, 1084.967 1677.320, 1047.030 1687.117 C 987.203 1702.566, 910.044 1697.313, 848.748 1673.618 C 781.322 1647.553, 722.988 1595.444, 690.068 1531.873 C 669.731 1492.600, 658.848 1453.692, 653.881 1402.500 C 652.207 1385.247, 652.203 1338.405, 653.874 1325.500 C 658.195 1292.134, 667.234 1266.913, 681.619 1248.089 L 687.282 1240.678 685.391 1237.117 C 681.943 1230.622, 671.424 1220.470, 664.242 1216.705 C 653.895 1211.280, 646.448 1209.630, 632 1209.560 C 621.490 1209.510, 618.386 1209.870, 612.500 1211.823 C 603.950 1214.660, 592.374 1220.754, 585 1226.302 C 571.414 1236.521, 551.411 1258.693, 539.260 1277 C 517.483 1309.810, 506 1349.596, 506 1392.237 C 506 1415.678, 509.557 1434.798, 517.632 1454.766 L 522.188 1466.032 515.271 1474.266 C 479.814 1516.473, 463.431 1556.885, 465.311 1597.500 C 466.939 1632.687, 479.953 1661.581, 506.439 1688.818 L 515.500 1698.135 515.374 1718.818 C 515.304 1730.193, 514.698 1744, 514.027 1749.500 C 511.597 1769.421, 505.553 1787.570, 497.241 1799.911 L 492.803 1806.500 495.121 1811 C 498.696 1817.943, 510.393 1829.040, 518 1832.707 C 528.253 1837.650, 535.126 1839.123, 550.671 1839.711 C 561.449 1840.119, 567.298 1839.836, 575.099 1838.532 C 614.037 1832.021, 651.144 1811.250, 693.751 1772.115 L 706.003 1760.861 713.251 1764.843 C 742.844 1781.100, 789.177 1798.626, 829.605 1808.855 C 889.115 1823.914, 944.171 1829.810, 1015 1828.709 C 1052.055 1828.133, 1072.614 1826.695, 1104.500 1822.449 C 1225.342 1806.358, 1327.995 1758.606, 1408.121 1681.210 C 1466.178 1625.132, 1503.634 1561.620, 1521.456 1489.036 C 1536.036 1429.661, 1538.953 1354.429, 1528.960 1295.500 C 1519.843 1241.734, 1498.347 1188.298, 1466.247 1139.599 C 1439.433 1098.922, 1402.326 1055.336, 1349.021 1001.908 C 1311.651 964.452, 1287.929 942.290, 1242.414 902.310 C 1223.265 885.489, 1218.667 880.501, 1214.830 872.387 C 1207.930 857.793, 1208.849 847.450, 1222.138 790.171 C 1226.008 773.489, 1228.963 759.630, 1228.704 759.371 C 1228.446 759.112, 1224.076 761.422, 1218.993 764.504 C 1182.659 786.536, 1135.880 802.160, 1105.500 802.410 C 1095.222 802.494, 1093.975 802.283, 1086.500 799.191 C 1082.100 797.370, 1073.775 793.323, 1068 790.196 C 1054.647 782.966, 982.264 734.807, 962.500 720.003 C 915.112 684.507, 874.268 643.571, 859.586 616.858 C 841.305 583.595, 837.923 536.873, 850.977 497.910 C 863.419 460.771, 894.271 426.562, 932.500 407.514 C 962.802 392.416, 989.842 387.195, 1031.975 388.308 C 1055.815 388.938, 1065.234 389.789, 1084.302 393.038 C 1192.383 411.453, 1271.304 485.096, 1296.452 591 C 1306.107 631.661, 1302.923 679.393, 1287.991 717.848 C 1286.379 721.998, 1285.160 725.491, 1285.280 725.610 C 1286.306 726.619, 1302.535 732.349, 1309.151 734.039 C 1327.706 738.776, 1354.984 740.444, 1365.992 737.515 C 1381.297 733.442, 1402.883 716.962, 1415.785 699.500 C 1428.760 681.940, 1436.022 658.431, 1435.980 634.119 C 1435.957 620.621, 1434.991 612.791, 1431.437 597.293 L 1428.867 586.086 1435.520 578.293 C 1451.970 559.024, 1461.592 539.396, 1467.231 513.604 C 1469.137 504.885, 1469.439 500.485, 1469.437 481.500 C 1469.435 464.495, 1469.032 457.457, 1467.661 450.500 C 1462.877 426.220, 1454.942 409.129, 1442.299 395.875 L 1436.811 390.121 1441.954 383.811 C 1448.351 375.960, 1454.354 363.976, 1457.136 353.500 C 1460.455 341.004, 1460.888 315.939, 1458.025 302.026 C 1449.827 262.172, 1421.690 227.659, 1390.661 219.398 C 1384.892 217.862, 1370.587 217.712, 1364.559 219.124 M 632.548 557.724 C 621.829 563.178, 611.785 576.473, 606.654 592 C 599.375 614.030, 598.576 648.039, 604.600 679.500 C 616.543 741.876, 656.996 809.679, 725.850 882.726 C 745.163 903.215, 763.610 920.648, 812.552 964.661 C 840.122 989.456, 854.695 1003.294, 859.316 1009.069 C 865.745 1017.105, 870.006 1025.571, 869.995 1030.288 C 869.987 1033.779, 862.316 1062.364, 858.063 1074.750 C 855.939 1080.938, 854.369 1086, 854.576 1086 C 854.782 1086, 859.124 1083.770, 864.225 1081.045 C 876.595 1074.438, 886.069 1070.615, 896.701 1067.942 C 904.441 1065.996, 907.065 1065.806, 918.500 1066.364 C 947.746 1067.793, 970.367 1075.278, 999 1093.001 C 1048.076 1123.379, 1105.589 1163.496, 1144.760 1194.673 C 1187.253 1228.495, 1227.990 1268.052, 1249.625 1296.500 C 1282.083 1339.180, 1299.808 1388.180, 1304.969 1449.500 C 1306.996 1473.579, 1305.919 1507.259, 1302.492 1527 C 1301.776 1531.125, 1301.365 1534.680, 1301.579 1534.901 C 1302.284 1535.626, 1316.573 1524.145, 1321.656 1518.769 C 1345.680 1493.361, 1355.188 1462.358, 1353.632 1414.500 C 1351.723 1355.765, 1342.241 1324.623, 1312.680 1280 C 1279.985 1230.645, 1218.520 1173.668, 1134.500 1114.830 C 1119.235 1104.140, 1095.301 1087.767, 1011.500 1030.687 C 931.034 975.878, 917.013 965.931, 886.314 941.873 C 786.826 863.908, 711.356 777.344, 671.516 695.500 C 650.025 651.351, 639.727 613.334, 638.157 572.352 L 637.500 555.204 632.548 557.724" stroke="none" fill="#643c9c" fill-rule="evenodd"/></svg>